<!DOCTYPE svg PUBLIC "-//W3C//DTD SVG 1.1//EN" "http://www.w3.org/Graphics/SVG/1.1/DTD/svg11.dtd">
<!-- Uploaded to: SVG Repo, www.svgrepo.com, Transformed by: SVG Repo Mixer Tools -->
<svg width="120px" height="120px" viewBox="-10.24 -10.24 84.48 84.48" xmlns="http://www.w3.org/2000/svg" xmlns:xlink="http://www.w3.org/1999/xlink" aria-hidden="true" role="img" class="iconify iconify--emojione" preserveAspectRatio="xMidYMid meet" fill="#ffffff" stroke="#ffffff" stroke-width="1.92">
<g id="SVGRepo_bgCarrier" stroke-width="0">
<path transform="translate(-10.24, -10.24), scale(5.28)" fill="#3158a5" d="M9.166.33a2.25 2.25 0 00-2.332 0l-5.25 3.182A2.25 2.25 0 00.5 5.436v5.128a2.25 2.25 0 001.084 1.924l5.25 3.182a2.25 2.25 0 002.332 0l5.25-3.182a2.25 2.25 0 001.084-1.924V5.436a2.25 2.25 0 00-1.084-1.924L9.166.33z" strokewidth="0"/>
</g>
<g id="SVGRepo_tracerCarrier" stroke-linecap="round" stroke-linejoin="round"/>
<g id="SVGRepo_iconCarrier">
<circle cx="32" cy="32" r="30" fill="#1666d0"/>
<path d="M25.8 37.6c.2 1.3.6 2.3 1.1 3c1 1.2 2.7 1.8 5.2 1.8c1.5 0 2.6-.2 3.6-.5c1.7-.6 2.6-1.7 2.6-3.4c0-1-.4-1.7-1.3-2.2c-.8-.5-2.2-1-4-1.4l-3.1-.7c-3.1-.7-5.2-1.4-6.4-2.2c-2-1.3-2.9-3.4-2.9-6.3c0-2.6 1-4.8 2.9-6.5c1.9-1.7 4.7-2.6 8.4-2.6c3.1 0 5.7.8 7.9 2.4c2.2 1.6 3.3 4 3.4 7.1h-5.8c-.1-1.7-.9-3-2.3-3.7c-1-.5-2.2-.7-3.6-.7c-1.6 0-2.9.3-3.8.9s-1.4 1.5-1.4 2.6c0 1 .5 1.8 1.4 2.3c.6.3 1.9.7 3.9 1.2l5.1 1.2c2.2.5 3.9 1.2 5 2.1c1.7 1.4 2.6 3.3 2.6 5.9c0 2.7-1 4.9-3.1 6.6c-2 1.8-4.9 2.6-8.7 2.6c-3.8 0-6.8-.9-9-2.6c-2.4-1.5-3.5-3.9-3.5-6.9h5.8" fill="#ffffff"/>
</g>
</svg>